<?xml version="1.0" standalone="no"?>
<!DOCTYPE svg PUBLIC "-//W3C//DTD SVG 20010904//EN"
 "http://www.w3.org/TR/2001/REC-SVG-20010904/DTD/svg10.dtd">
<svg version="1.0" xmlns="http://www.w3.org/2000/svg"
 width="1273.000000pt" height="1273.000000pt" viewBox="0 0 1273.000000 1273.000000"
 preserveAspectRatio="xMidYMid meet">
<metadata>
Created by potrace 1.14, written by Peter Selinger 2001-2017
</metadata>
<g transform="translate(0.000000,1273.000000) scale(0.100000,-0.100000)"
fill="#000000" stroke="none">
<path d="M5950 9470 c-194 -13 -341 -28 -539 -56 -1252 -178 -2227 -715 -2550
-1404 -101 -217 -130 -430 -96 -710 41 -343 167 -679 371 -988 83 -125 90
-133 118 -130 38 4 48 28 11 28 -23 0 -26 2 -15 15 10 12 10 15 -2 15 -15 0
-38 40 -38 65 0 24 37 17 101 -17 51 -28 61 -31 69 -18 15 24 12 32 -9 20 -32
-17 -41 -12 -35 18 4 19 1 32 -10 41 -15 13 -15 16 1 34 18 20 17 20 -9 13
-21 -5 -28 -3 -28 8 0 7 -10 16 -22 19 -18 5 -19 8 -9 21 12 14 17 14 49 -1
38 -17 70 -19 135 -8 41 8 42 10 22 45 -12 22 -14 23 -20 8 -4 -10 -11 -18
-16 -18 -6 0 -5 8 1 19 16 31 12 36 -11 15 -12 -10 -24 -14 -26 -9 -10 30 -45
75 -57 75 -16 0 -32 37 -22 48 4 3 27 5 53 3 44 -3 45 -2 40 21 -4 12 -7 31
-7 40 0 14 -7 16 -36 11 -33 -6 -36 -4 -33 18 2 13 1 29 -2 34 -4 6 -9 23 -13
38 -7 28 -6 28 50 -18 32 -25 71 -53 88 -62 17 -8 39 -24 49 -34 18 -19 86
-27 101 -12 4 5 12 9 17 9 22 3 23 5 9 14 -8 5 -27 10 -42 10 -16 0 -28 5 -28
10 0 6 -8 10 -17 10 -10 0 -31 7 -47 15 -15 8 -34 15 -41 15 -23 0 -30 42 -10
57 20 14 40 11 128 -18 71 -24 67 -24 67 6 0 18 -7 28 -25 35 -27 10 -33 25
-12 34 8 3 5 11 -12 25 -30 27 -34 26 -67 -4 -18 -17 -38 -25 -58 -24 -17 1
-37 0 -45 -2 -7 -2 -15 1 -17 7 -3 5 36 29 86 51 49 23 90 45 90 50 0 4 -37 7
-81 5 -86 -4 -127 10 -65 22 39 7 66 38 66 73 0 28 11 29 35 3 12 -14 31 -20
58 -20 22 0 38 3 34 6 -3 4 0 22 8 40 12 30 12 34 -1 34 -7 0 -14 7 -14 15 0
8 -11 25 -25 37 -40 35 -32 52 13 29 21 -11 44 -27 51 -35 8 -10 29 -16 53
-16 l39 0 -21 28 c-11 15 -36 36 -55 46 -19 11 -35 26 -35 34 0 7 -9 26 -19
41 -24 33 -37 81 -23 81 5 0 17 -11 26 -25 19 -29 48 -32 80 -8 l23 17 -19 33
c-19 32 -17 73 3 73 6 0 25 12 44 27 l34 27 -27 25 c-28 25 -16 45 13 21 12
-10 16 -7 25 14 5 14 15 26 22 26 7 0 24 9 38 20 14 11 31 20 38 20 21 0 -5
-38 -39 -59 -16 -10 -26 -21 -23 -24 4 -3 -1 -13 -10 -22 -19 -20 -21 -45 -3
-45 7 0 43 18 80 40 67 41 87 48 87 30 0 -5 -5 -10 -11 -10 -22 0 -96 -88
-103 -122 -3 -19 -16 -45 -27 -57 -28 -30 -17 -37 28 -19 21 9 52 21 70 28 17
6 39 20 49 31 18 20 44 26 44 9 0 -6 -22 -32 -50 -58 -66 -63 -66 -95 0 -57
35 20 45 18 48 -9 1 -20 -5 -26 -41 -38 -41 -13 -42 -14 -39 -51 4 -44 -14
-56 -55 -38 -25 12 -42 3 -43 -21 0 -16 67 -7 134 17 39 13 72 23 74 21 7 -7
-63 -79 -100 -103 -37 -23 -68 -67 -55 -79 11 -11 107 27 155 62 55 40 71 48
78 42 8 -8 -16 -61 -38 -85 -11 -12 -18 -28 -15 -36 4 -10 -4 -17 -24 -21 -21
-4 -34 -15 -43 -36 -13 -33 -70 -75 -87 -65 -5 4 -9 1 -9 -4 0 -17 43 -13 70
6 14 9 55 42 92 75 36 32 68 58 71 58 16 0 13 -46 -4 -68 -24 -31 -25 -78 -1
-91 15 -8 12 -12 -18 -25 -20 -8 -43 -23 -53 -34 -10 -11 -32 -23 -50 -26 -29
-6 -30 -7 -14 -24 14 -13 32 -16 78 -15 63 3 88 15 149 76 33 32 46 34 60 8
14 -27 13 -31 -7 -31 -16 0 -16 -2 -3 -10 13 -9 13 -12 -2 -24 -10 -7 -18 -23
-18 -34 0 -11 -5 -24 -11 -27 -5 -4 -9 -17 -7 -30 3 -25 -17 -55 -38 -55 -8 0
-14 -4 -14 -10 0 -5 26 -10 57 -10 31 0 53 -3 50 -7 -4 -3 -46 -14 -95 -23
-62 -12 -81 -19 -65 -24 11 -4 24 -13 27 -21 6 -17 -19 -45 -41 -45 -11 0 -14
-6 -9 -25 9 -36 41 -65 71 -65 43 0 127 35 190 79 33 23 61 37 63 31 7 -19
-28 -60 -50 -60 -20 0 -20 -1 -5 -18 15 -16 15 -19 -3 -30 -11 -7 -20 -23 -20
-36 0 -16 -7 -26 -22 -29 -13 -4 -32 -22 -42 -42 -11 -20 -33 -43 -48 -51 -17
-9 -28 -23 -28 -36 0 -18 4 -20 32 -14 32 6 167 79 227 122 39 27 61 31 61 9
0 -8 -9 -15 -20 -15 -16 0 -19 -5 -14 -28 6 -32 -37 -108 -68 -118 -10 -3 -22
-14 -28 -24 -5 -10 -23 -21 -40 -25 -16 -4 -30 -11 -30 -16 0 -6 -11 -21 -26
-35 -24 -25 -24 -27 -7 -40 26 -19 45 -12 225 95 15 8 30 13 33 9 13 -12 -6
-46 -28 -52 -20 -5 -21 -7 -6 -21 9 -10 14 -26 11 -40 -4 -21 -7 -23 -24 -14
-25 13 -35 4 -18 -16 18 -22 -13 -55 -52 -55 -31 0 -36 -11 -13 -30 19 -16 19
-30 -2 -45 -9 -7 -13 -17 -9 -24 11 -17 38 1 116 74 94 89 166 122 124 57 -21
-32 -20 -83 1 -116 16 -24 16 -28 2 -50 -10 -14 -30 -26 -51 -30 -37 -7 -45
-23 -23 -45 10 -10 7 -10 -16 0 -31 14 -47 3 -47 -35 0 -14 -6 -17 -28 -14
-23 3 -28 0 -28 -17 1 -13 -5 -20 -16 -19 -21 2 -24 -14 -4 -22 23 -9 80 21
150 80 36 31 66 55 66 53 0 -38 -26 -116 -46 -140 -21 -25 -25 -37 -20 -68 5
-34 4 -37 -24 -43 -17 -3 -41 0 -55 6 -31 14 -44 3 -22 -19 9 -9 38 -18 69
-21 45 -3 59 0 92 23 l38 26 -6 -25 c-10 -41 -49 -94 -79 -107 -16 -7 -33 -23
-38 -36 -9 -25 -21 -28 -49 -13 -13 7 -25 4 -45 -12 -15 -12 -44 -25 -64 -29
l-36 -7 40 0 c22 0 49 3 60 7 13 5 31 3 49 -6 25 -13 37 -13 103 2 41 9 76 15
79 13 2 -2 -10 -20 -26 -40 -20 -24 -41 -38 -65 -42 -28 -6 -39 -15 -54 -46
l-18 -38 96 -45 c787 -370 1743 -577 2672 -577 448 0 884 85 1257 246 108 46
112 49 112 79 0 71 -5 75 -79 68 -36 -3 -70 -9 -75 -14 -6 -5 -27 -9 -48 -9
-29 0 -41 -6 -54 -25 -20 -30 -40 -32 -54 -4 -7 12 -17 18 -26 15 -8 -3 -21
-9 -29 -12 -10 -4 -15 0 -15 10 0 10 -8 16 -21 16 -18 0 -19 2 -9 15 10 13 9
15 -9 15 -12 0 -33 12 -46 26 l-25 27 0 -25 c0 -30 -9 -41 -24 -29 -6 5 -26
11 -45 13 -43 4 -51 23 -15 32 15 4 39 16 53 26 15 10 46 23 71 30 37 10 41
14 25 20 -40 15 -212 21 -239 8 -20 -9 -29 -9 -38 0 -7 7 -31 12 -54 12 -23 0
-49 3 -58 6 -32 12 -15 24 34 24 45 0 51 3 65 30 17 32 13 50 -10 50 -9 0 -14
-9 -12 -22 1 -17 -4 -24 -20 -26 -13 -2 -23 1 -23 7 0 6 -6 11 -14 11 -7 0
-25 15 -39 34 -22 28 -35 34 -79 40 l-53 8 30 23 29 24 -23 25 c-12 13 -25 42
-28 65 -7 54 12 55 76 1 55 -47 101 -63 137 -50 27 11 44 42 26 48 -7 2 -12 9
-12 15 0 16 -53 39 -72 32 -11 -4 -20 7 -32 40 -10 25 -15 52 -12 60 3 8 26
20 51 26 52 13 64 36 13 24 -49 -11 -67 -11 -70 0 -2 5 11 12 27 15 42 7 38
31 -10 54 l-40 19 44 11 43 11 -43 37 c-24 20 -41 39 -37 43 9 10 115 -14 167
-37 39 -18 51 -19 99 -9 31 6 57 13 60 15 9 10 -11 26 -32 26 -13 0 -40 14
-61 30 -21 17 -49 30 -62 30 -19 0 -23 4 -18 19 4 15 1 18 -19 14 -21 -4 -28
2 -45 35 -16 31 -28 41 -48 44 -23 2 -29 8 -31 36 -3 34 8 41 28 17 18 -22 43
-18 74 10 15 14 31 25 37 25 16 0 10 20 -8 27 -10 4 -22 12 -26 20 -4 7 -15
13 -23 13 -11 0 -12 4 -4 19 12 23 0 34 -26 24 -14 -5 -16 -2 -12 20 3 16 0
31 -8 38 -8 6 -14 15 -14 20 0 20 39 6 105 -37 56 -36 71 -42 73 -29 2 9 -9
32 -25 51 -15 20 -35 46 -43 57 -8 12 -26 22 -39 22 -34 0 -38 22 -7 36 20 10
23 15 16 30 -9 15 -3 21 36 38 26 12 67 21 93 21 54 0 91 9 91 21 0 5 -9 9
-19 9 -24 0 -36 16 -20 25 7 5 2 12 -12 19 -28 14 -46 63 -30 79 9 9 30 2 87
-28 73 -39 76 -39 90 -21 22 31 17 38 -17 21 -36 -19 -45 -15 -30 13 7 14 6
25 -6 42 -13 18 -14 27 -4 41 10 17 8 19 -20 19 -16 0 -28 4 -24 9 3 5 -4 12
-15 16 -26 8 -26 35 0 35 12 0 39 -9 62 -21 39 -20 43 -20 75 -5 19 9 47 16
63 16 17 0 30 5 30 10 0 6 -4 10 -9 10 -5 0 -11 10 -14 22 -6 22 -6 22 -27 3
-21 -19 -21 -19 -10 9 12 34 8 43 -10 21 -19 -23 -35 -18 -51 17 -8 17 -23 36
-34 42 -26 14 -35 27 -35 49 0 14 8 17 50 15 58 -3 67 4 52 37 -6 14 -9 32 -6
40 5 13 2 13 -30 0 -41 -17 -40 -18 -50 52 -3 23 -9 49 -13 59 -3 9 19 -4 51
-30 31 -25 75 -55 98 -67 22 -11 43 -29 45 -40 5 -16 15 -19 62 -19 45 0 59 4
69 20 11 19 10 20 -22 20 -19 0 -36 3 -38 8 -1 4 -32 19 -68 33 -67 27 -82 47
-59 75 15 18 45 14 141 -17 77 -24 78 -24 78 6 0 17 -9 29 -31 41 -23 11 -28
19 -20 27 18 18 13 37 -13 47 -29 10 -66 2 -66 -15 0 -13 -41 -35 -65 -35 -8
0 -15 5 -15 10 0 7 -6 7 -19 0 -26 -13 -31 -13 -31 4 0 8 19 21 43 31 86 34
145 66 151 81 4 11 1 12 -12 6 -9 -4 -55 -5 -102 -2 -56 4 -78 8 -65 14 81 32
84 34 87 77 l3 42 31 -26 c21 -18 44 -27 66 -27 30 0 35 4 49 44 15 42 15 45
-3 49 -10 3 -18 14 -18 25 0 11 -11 27 -25 36 -27 18 -33 36 -12 36 7 0 37
-16 67 -35 50 -31 111 -47 110 -27 -1 12 -44 57 -73 76 -15 9 -32 28 -37 42
-5 13 -18 37 -29 52 -26 35 -39 86 -21 80 8 -2 18 -13 24 -24 6 -10 16 -22 21
-26 18 -13 63 -8 69 7 3 8 13 15 21 15 14 0 13 4 -4 29 -25 35 -28 91 -6 91 8
0 25 11 37 25 12 14 28 25 35 25 21 0 15 16 -12 34 -14 9 -25 23 -25 31 0 17
16 20 25 5 9 -15 35 -12 35 4 0 13 92 76 111 76 15 0 11 -15 -12 -44 -11 -14
-29 -26 -40 -26 -12 0 -19 -7 -19 -19 0 -11 -4 -23 -10 -26 -14 -9 -12 -45 3
-45 12 0 90 42 139 73 20 14 28 15 34 6 4 -8 2 -15 -6 -17 -26 -9 -110 -103
-110 -123 0 -25 -16 -56 -44 -88 -20 -23 -20 -24 -1 -18 66 20 129 47 163 70
44 31 52 33 52 11 0 -9 -22 -37 -50 -62 -76 -69 -68 -87 23 -48 21 9 37 12 37
6 0 -5 -5 -10 -11 -10 -9 0 -9 -4 0 -13 15 -19 -14 -44 -54 -49 -28 -3 -30 -5
-30 -48 0 -41 -2 -45 -27 -48 -15 -2 -36 1 -47 7 -19 11 -31 -2 -31 -31 0 -17
82 -2 156 28 36 14 67 24 70 22 9 -10 -69 -97 -97 -108 -33 -14 -84 -74 -75
-89 13 -21 127 25 197 80 37 29 69 38 69 19 0 -5 -4 -10 -10 -10 -5 0 -7 -6
-4 -14 3 -8 -9 -30 -26 -50 -18 -20 -30 -41 -27 -48 2 -8 -9 -18 -27 -24 -19
-6 -37 -23 -46 -43 -18 -37 -75 -75 -99 -66 -15 6 -15 5 0 -10 15 -16 19 -16
50 -1 19 9 72 50 119 91 l85 75 6 -27 c3 -18 -1 -37 -13 -55 -10 -14 -21 -40
-24 -58 -6 -26 -3 -32 15 -37 17 -4 19 -8 10 -19 -6 -8 -19 -14 -28 -14 -10 0
-30 -13 -46 -30 -16 -16 -44 -33 -64 -36 l-35 -7 24 -19 c33 -27 140 -21 172
9 13 12 35 26 50 32 16 6 30 21 34 36 7 30 39 34 54 6 14 -28 12 -41 -6 -41
-14 0 -14 -2 -3 -16 11 -13 10 -17 -4 -25 -9 -6 -17 -18 -17 -27 0 -10 -7 -27
-15 -39 -8 -12 -12 -29 -9 -38 7 -18 -22 -55 -43 -55 -7 0 -13 -5 -13 -11 0
-8 19 -10 65 -5 41 4 65 3 65 -4 0 -5 -10 -12 -22 -14 -89 -19 -133 -26 -161
-26 l-32 0 33 -20 c38 -24 37 -39 -4 -60 -16 -8 -31 -16 -33 -17 -2 -2 2 -9 8
-17 7 -8 10 -20 7 -25 -4 -6 3 -15 14 -21 11 -6 17 -16 14 -22 -5 -8 8 -9 43
-5 54 6 156 48 188 76 30 27 84 56 90 49 12 -12 -26 -68 -51 -74 -23 -6 -23
-7 -7 -20 16 -12 16 -15 3 -24 -8 -5 -19 -11 -25 -13 -5 -2 -10 -17 -10 -33
-1 -22 -7 -30 -23 -32 -14 -2 -30 -18 -42 -43 -11 -21 -33 -45 -49 -53 -33
-17 -43 -37 -30 -57 7 -11 28 -4 113 39 57 29 120 66 141 82 44 35 73 46 87
32 14 -14 1 -32 -23 -32 -16 0 -18 -3 -9 -19 11 -21 -2 -71 -19 -71 -5 0 -12
-12 -15 -26 -4 -16 -17 -29 -36 -35 -16 -6 -32 -19 -35 -30 -4 -11 -19 -22
-35 -25 -31 -7 -112 -94 -85 -94 8 0 15 -4 15 -10 0 -5 6 -10 13 -10 10 0 109
53 214 116 24 14 35 16 43 8 15 -15 -4 -54 -25 -54 -19 0 -20 -26 -1 -33 9 -4
12 -15 8 -32 -4 -23 -8 -25 -33 -20 -18 4 -29 2 -29 -4 0 -6 5 -11 10 -11 17
0 11 -26 -10 -45 -10 -9 -31 -18 -45 -17 -34 0 -41 -14 -15 -30 26 -17 26 -44
-1 -51 -22 -6 -18 -27 6 -27 7 0 51 35 97 78 93 85 128 108 153 98 15 -5 14
-9 -4 -32 -27 -34 -27 -77 0 -121 20 -31 20 -35 5 -58 -9 -14 -21 -26 -26 -26
-6 -1 -14 -2 -19 -3 -5 0 -13 -4 -17 -8 -4 -5 -16 -8 -27 -8 -19 0 -19 -1 -2
-27 17 -25 17 -26 -1 -18 -45 18 -49 16 -59 -17 -8 -28 -14 -33 -36 -30 -21 2
-26 -1 -25 -20 1 -18 -4 -22 -21 -21 -16 2 -21 -2 -17 -12 4 -8 10 -15 15 -15
27 0 91 37 160 93 89 70 90 73 115 242 29 192 6 520 -57 819 -176 838 -682
1576 -1414 2061 -462 306 -949 484 -1530 561 -134 18 -597 26 -785 14z m2770
-1196 c0 -21 -4 -33 -10 -29 -17 10 -11 65 7 65 2 0 3 -16 3 -36z m-1850 -34
c0 -13 -7 -20 -20 -20 -13 0 -20 7 -20 20 0 13 7 20 20 20 13 0 20 -7 20 -20z
m-1530 -16 c168 -38 318 -184 362 -353 46 -179 -2 -353 -135 -488 -28 -29 -46
-53 -39 -53 7 0 12 -7 12 -15 0 -17 -36 -21 -42 -4 -2 6 -22 0 -48 -15 -132
-74 -335 -72 -469 5 -55 31 -56 48 -5 49 33 0 98 30 88 40 -5 5 -39 14 -75 19
-37 6 -83 18 -104 27 -21 8 -44 13 -51 10 -8 -3 -21 5 -30 18 -17 27 -15 31
54 104 54 58 45 63 -50 26 -37 -14 -50 -16 -60 -6 -9 9 -3 20 28 47 39 35 59
41 121 36 17 -1 34 3 38 9 3 5 26 10 51 10 24 0 44 4 44 8 0 14 -119 43 -213
52 -49 5 -91 11 -94 14 -3 2 -2 14 2 25 5 18 14 21 60 21 43 0 56 4 65 19 8
16 15 18 40 11 25 -7 32 -5 41 11 7 13 16 18 29 14 10 -3 21 -1 24 4 12 19
-73 32 -155 25 -57 -5 -79 -3 -79 5 0 26 30 81 44 81 10 0 16 9 16 26 0 17 17
43 49 77 124 131 299 183 481 141z m3384 -66 c8 -13 7 -21 0 -28 -13 -13 -44
13 -44 36 0 20 30 14 44 -8z m-919 -58 c0 -18 -6 -26 -23 -28 -24 -4 -38 18
-28 44 3 9 15 14 28 12 17 -2 23 -10 23 -28z m921 -42 c-1 -25 5 -35 24 -45
l25 -13 -28 0 c-19 0 -38 10 -58 33 l-30 32 26 3 c14 2 25 8 25 13 0 5 4 9 9
9 5 0 8 -14 7 -32z m-4926 -98 c0 -16 -4 -30 -10 -30 -11 0 -14 43 -3 53 11
12 13 8 13 -23z m4965 14 c14 -6 11 -12 -16 -40 -31 -32 -34 -33 -51 -17 -23
21 -23 37 0 28 14 -5 15 -4 5 6 -7 7 -13 17 -13 21 0 10 51 11 75 2z m-4965
-123 c7 -14 7 -22 0 -26 -13 -8 -40 13 -40 31 0 21 28 17 40 -5z m4830 -20 c0
-12 -25 -21 -58 -21 -42 0 -4 24 46 29 6 0 12 -3 12 -8z m-4830 -70 c-8 -16
-5 -23 18 -40 20 -15 23 -20 10 -21 -18 0 -78 46 -78 60 0 7 12 12 53 19 4 0
3 -8 -3 -18z m43 -96 c-4 -13 -46 -45 -57 -45 -3 0 -10 10 -17 22 -10 19 -9
20 7 14 15 -6 17 -5 7 5 -21 21 -15 25 26 21 28 -3 38 -8 34 -17z m-133 -114
c0 -10 -24 -21 -46 -21 -20 0 -17 18 4 23 29 8 42 7 42 -2z m4636 -168 c16
-21 18 -53 4 -53 -8 0 -40 51 -40 65 0 12 24 4 36 -12z m-666 -201 c14 -29 29
-52 34 -52 5 0 6 38 3 88 -7 96 3 95 24 -3 11 -53 10 -71 -6 -135 -10 -41 -24
-91 -32 -110 -25 -63 -115 -168 -205 -240 -79 -63 -99 -90 -66 -90 6 0 43 31
83 69 70 66 109 90 123 76 12 -12 4 -92 -12 -122 -8 -16 -35 -46 -60 -67 -51
-42 -55 -55 -27 -100 33 -52 69 -176 81 -276 8 -66 9 -144 2 -255 -10 -177
-21 -217 -83 -291 -38 -45 -54 -75 -98 -189 -60 -155 -89 -279 -100 -435 -6
-82 -5 -109 5 -125 8 -11 14 -28 14 -38 0 -10 14 -36 32 -58 27 -33 30 -42 18
-49 -40 -26 -100 4 -100 49 0 16 -6 34 -14 40 -25 21 -20 325 10 599 l6 53
-33 -3 -33 -3 3 -120 c10 -490 11 -499 31 -564 10 -36 18 -66 16 -68 -1 -2
-20 -4 -41 -6 -37 -2 -39 0 -47 33 -5 19 -8 91 -8 160 0 69 -5 145 -11 170 -6
25 -14 68 -19 95 -4 28 -21 102 -38 165 l-30 115 -94 7 c-54 4 -126 17 -172
32 -44 14 -84 22 -90 18 -6 -3 -47 -44 -91 -91 -44 -46 -102 -102 -130 -124
-60 -47 -74 -70 -75 -118 0 -78 85 -261 154 -330 25 -26 46 -51 46 -58 0 -16
-91 -13 -113 3 -10 8 -23 30 -28 50 -6 21 -16 36 -25 36 -8 0 -19 10 -24 23
-5 12 -44 99 -86 192 -41 94 -77 175 -80 181 -3 6 24 40 58 75 60 60 103 128
96 149 -7 21 -255 -159 -370 -269 -115 -108 -209 -283 -227 -416 -5 -42 -9
-50 -26 -47 -55 8 -63 12 -67 42 -5 33 18 91 114 290 33 69 67 150 74 180 9
38 21 61 39 75 67 51 149 134 174 175 25 43 26 51 26 187 0 128 -2 143 -17
143 -9 0 -20 5 -23 10 -3 6 -1 10 5 10 5 0 22 25 36 55 46 97 128 149 283 180
74 15 113 16 350 6 146 -5 284 -7 306 -2 22 4 59 20 82 34 42 27 43 27 37 75
-4 26 -10 51 -15 56 -8 9 -66 11 -128 6 -27 -2 -39 3 -58 24 -12 15 -23 34
-23 43 0 9 33 47 73 84 l72 68 -34 33 c-19 18 -45 58 -59 88 -29 64 -32 66
-86 74 -58 9 -102 39 -126 85 -27 54 -25 62 5 20 30 -40 90 -79 122 -79 21 0
20 4 -23 88 -52 102 -64 169 -41 222 l15 35 1 -70 c2 -105 67 -232 140 -273
84 -47 114 -20 119 108 4 84 3 91 -26 132 -48 71 -62 105 -61 150 l0 43 15
-55 c19 -73 62 -134 96 -138 31 -4 63 33 102 118 16 34 26 47 26 34 0 -35 -29
-107 -59 -144 -44 -55 -50 -72 -61 -166 -12 -109 -12 -104 0 -104 6 0 10 8 11
18 0 9 14 -11 30 -45 25 -51 35 -63 54 -63 31 0 65 48 65 91 0 33 0 33 16 11
14 -20 17 -21 42 -8 15 8 40 27 55 44 22 23 25 31 15 39 -13 10 -149 56 -200
67 -15 4 -32 15 -38 26 -13 23 2 27 20 5 7 -8 22 -15 34 -15 11 0 43 -7 71
-15 59 -18 75 -14 75 18 0 30 -39 135 -74 201 -38 72 -32 86 11 25 20 -30 53
-98 74 -152 39 -102 63 -147 78 -147 5 0 27 20 49 45 76 86 83 210 18 308 -20
30 -43 61 -51 67 -8 7 -15 17 -15 23 0 24 87 -63 110 -111z m-4228 -39 c21
-19 24 -43 5 -43 -11 0 -37 39 -37 55 0 10 14 4 32 -12z m4633 -2243 c3 -5 -3
-10 -15 -10 -12 0 -18 5 -15 10 3 6 10 10 15 10 5 0 12 -4 15 -10z"/>
<path d="M7200 6701 c0 -10 22 -31 32 -31 17 0 7 28 -12 33 -11 3 -20 2 -20
-2z"/>
<path d="M8590 7271 c25 -15 63 -17 67 -3 3 8 -8 12 -39 12 -29 -1 -38 -3 -28
-9z"/>
<path d="M3675 7040 c-3 -5 0 -10 7 -10 7 0 23 -3 36 -6 16 -5 22 -2 22 10 0
18 -54 23 -65 6z"/>
<path d="M8820 7040 c0 -5 6 -10 14 -10 8 0 18 5 21 10 3 6 -3 10 -14 10 -12
0 -21 -4 -21 -10z"/>
<path d="M9045 6903 c-28 -5 -78 -43 -55 -43 13 0 90 39 90 45 0 3 -1 4 -2 4
-2 -1 -16 -4 -33 -6z"/>
<path d="M3895 6830 c-3 -5 1 -10 9 -10 9 0 16 5 16 10 0 6 -4 10 -9 10 -6 0
-13 -4 -16 -10z"/>
<path d="M8306 6784 c-9 -24 -8 -26 16 -22 29 4 38 38 10 38 -11 0 -23 -7 -26
-16z"/>
<path d="M8381 6756 c-9 -10 -9 -16 -1 -21 17 -10 37 12 24 25 -8 8 -15 6 -23
-4z"/>
<path d="M8480 6740 c-8 -5 -11 -12 -7 -16 4 -4 13 -2 19 4 15 15 7 24 -12 12z"/>
<path d="M4051 6680 c-13 -11 -18 -20 -12 -20 16 0 81 28 81 34 0 14 -47 4
-69 -14z"/>
<path d="M9080 6676 c0 -9 5 -16 10 -16 6 0 10 4 10 9 0 6 -4 13 -10 16 -5 3
-10 -1 -10 -9z"/>
<path d="M3422 6598 c-19 -19 -14 -30 11 -26 12 2 22 9 22 17 0 19 -18 24 -33
9z"/>
<path d="M8364 6575 c-4 -9 -2 -21 4 -27 15 -15 44 -1 40 19 -4 23 -36 29 -44
8z"/>
<path d="M8460 6580 c0 -5 7 -10 16 -10 8 0 12 5 9 10 -3 6 -10 10 -16 10 -5
0 -9 -4 -9 -10z"/>
<path d="M3480 6560 c0 -5 7 -10 15 -10 8 0 15 5 15 10 0 6 -7 10 -15 10 -8 0
-15 -4 -15 -10z"/>
<path d="M3577 6553 c-10 -9 -9 -23 2 -23 5 0 11 7 15 15 5 15 -5 20 -17 8z"/>
<path d="M4130 6490 c0 -5 5 -10 11 -10 5 0 7 5 4 10 -3 6 -8 10 -11 10 -2 0
-4 -4 -4 -10z"/>
<path d="M3470 6390 c0 -23 35 -28 43 -6 7 18 -1 26 -25 26 -11 0 -18 -7 -18
-20z"/>
<path d="M3565 6400 c3 -5 8 -10 11 -10 2 0 4 5 4 10 0 6 -5 10 -11 10 -5 0
-7 -4 -4 -10z"/>
<path d="M8200 6360 c-8 -5 -12 -12 -8 -15 9 -9 48 4 48 16 0 12 -21 11 -40
-1z"/>
<path d="M9152 6341 c2 -7 7 -12 11 -12 12 1 9 15 -3 20 -7 2 -11 -2 -8 -8z"/>
<path d="M8027 6283 c-23 -22 8 -66 70 -97 31 -15 157 -46 190 -46 13 0 13 3
3 15 -10 13 -9 15 9 15 14 0 20 4 15 11 -4 6 -20 8 -40 4 -38 -7 -44 4 -14 23
11 7 20 17 20 22 0 6 -11 3 -24 -5 -25 -17 -90 -12 -102 6 -3 5 -16 9 -30 9
-17 0 -27 8 -34 25 -9 24 -47 35 -63 18z"/>
<path d="M3315 6201 c-10 -17 11 -21 31 -6 18 14 18 14 -3 15 -12 0 -24 -4
-28 -9z"/>
<path d="M4190 6180 c0 -5 5 -10 10 -10 6 0 10 5 10 10 0 6 -4 10 -10 10 -5 0
-10 -4 -10 -10z"/>
<path d="M3373 6079 c-5 -5 -19 -11 -31 -12 -35 -2 -2 -47 47 -62 19 -6 23 -4
18 8 -4 10 1 18 11 21 9 3 2 4 -16 2 -39 -3 -48 6 -26 29 9 9 14 18 12 20 -2
3 -9 0 -15 -6z"/>
<path d="M8198 5963 c7 -3 16 -2 19 1 4 3 -2 6 -13 5 -11 0 -14 -3 -6 -6z"/>
<path d="M9578 5942 c-38 -23 -30 -36 25 -40 51 -3 71 15 47 43 -16 19 -37 18
-72 -3z"/>
<path d="M7956 5891 c-3 -5 20 -20 52 -34 81 -36 99 -40 122 -27 29 15 26 40
-5 40 -14 0 -42 7 -62 15 -39 16 -99 20 -107 6z"/>
<path d="M4583 5819 c-41 -26 -34 -39 22 -39 51 0 64 13 39 41 -21 23 -22 23
-61 -2z"/>
<path d="M8100 5761 c0 -5 5 -13 10 -16 6 -3 10 -2 10 4 0 5 -4 13 -10 16 -5
3 -10 2 -10 -4z"/>
<path d="M9502 5558 c3 -7 17 -20 32 -28 23 -13 28 -13 36 0 7 11 1 17 -22 27
-38 16 -51 16 -46 1z"/>
<path d="M8015 5540 c-3 -5 -2 -10 4 -10 5 0 13 5 16 10 3 6 2 10 -4 10 -5 0
-13 -4 -16 -10z"/>
<path d="M9425 5481 c-9 -16 14 -23 55 -16 58 10 59 25 1 25 -27 0 -52 -4 -56
-9z"/>
<path d="M8076 5453 c-20 -11 -31 -12 -39 -4 -14 14 -41 14 -89 0 -42 -11 -49
-24 -17 -34 13 -4 27 -1 40 10 15 15 21 16 34 5 12 -10 24 -11 55 -1 35 10 58
27 49 36 -2 2 -17 -4 -33 -12z"/>
<path d="M8195 5411 c-6 -11 9 -23 19 -14 9 9 7 23 -3 23 -6 0 -12 -4 -16 -9z"/>
<path d="M4463 5403 c-32 -6 -29 -23 5 -23 37 0 72 10 72 21 0 9 -36 10 -77 2z"/>
<path d="M8114 5395 c10 -8 23 -12 28 -9 14 9 -2 24 -25 24 -21 -1 -21 -1 -3
-15z"/>
<path d="M9320 5330 c0 -5 5 -10 11 -10 5 0 7 5 4 10 -3 6 -8 10 -11 10 -2 0
-4 -4 -4 -10z"/>
<path d="M9398 5323 c6 -2 18 -2 25 0 6 3 1 5 -13 5 -14 0 -19 -2 -12 -5z"/>
<path d="M8040 5310 c20 -13 43 -13 35 0 -3 6 -16 10 -28 10 -18 0 -19 -2 -7
-10z"/>
<path d="M9292 5288 c5 -15 28 -18 29 -3 0 6 -7 12 -17 13 -10 3 -15 -1 -12
-10z"/>
<path d="M8100 5271 c0 -5 -12 -12 -26 -15 -21 -6 -24 -9 -14 -21 10 -12 39
-15 131 -15 109 0 144 8 103 24 -10 4 -14 12 -10 23 6 16 5 16 -12 0 -17 -16
-22 -16 -55 -2 -40 16 -117 20 -117 6z"/>
<path d="M4340 5260 c0 -5 5 -10 10 -10 6 0 10 5 10 10 0 6 -4 10 -10 10 -5 0
-10 -4 -10 -10z"/>
<path d="M8655 5250 c-3 -5 -2 -10 4 -10 5 0 13 5 16 10 3 6 2 10 -4 10 -5 0
-13 -4 -16 -10z"/>
<path d="M8435 5229 c-4 -6 -5 -13 -2 -16 7 -7 27 6 27 18 0 12 -17 12 -25 -2z"/>
<path d="M8073 5138 c-19 -25 -24 -38 -14 -38 11 0 35 39 28 46 -2 3 -9 -1
-14 -8z"/>
<path d="M8340 4952 c0 -6 -10 -14 -21 -17 -39 -13 1 -25 82 -25 l76 0 -5 26
c-4 22 -8 25 -31 18 -33 -9 -61 -9 -83 0 -11 5 -18 4 -18 -2z"/>
<path d="M8902 4928 c-8 -31 -11 -33 -56 -33 -50 0 -66 -13 -66 -52 0 -30 7
-29 82 13 88 50 89 51 76 80 -15 33 -26 30 -36 -8z"/>
<path d="M2670 4109 c-97 -25 -154 -63 -158 -107 -4 -45 18 -50 76 -19 137 74
299 75 368 1 87 -91 63 -344 -39 -416 -25 -18 -45 -23 -92 -22 -69 0 -145 33
-145 62 0 35 50 233 69 278 16 36 18 50 10 60 -16 20 -63 17 -82 -4 -30 -32
-66 -130 -83 -220 l-16 -89 -44 5 c-82 9 -144 -38 -144 -109 0 -55 33 -90 92
-96 59 -7 111 11 142 47 l24 29 59 -30 c111 -57 216 -49 298 23 124 109 162
365 74 502 -71 113 -227 153 -409 105z m-103 -553 c9 -9 -22 -45 -45 -51 -41
-10 -67 26 -39 54 11 11 72 10 84 -3z"/>
<path d="M1920 4101 c-94 -31 -174 -104 -218 -199 -36 -79 -44 -228 -15 -293
29 -65 67 -105 131 -136 52 -26 66 -28 167 -27 117 1 217 24 256 60 23 21 27
84 4 84 -8 0 -49 -12 -92 -26 -65 -22 -91 -25 -168 -22 -82 3 -95 6 -128 31
-43 32 -62 65 -71 123 -9 50 9 155 34 203 50 98 178 153 231 100 18 -18 21
-29 16 -72 -7 -59 3 -77 44 -77 85 0 83 169 -3 233 -29 22 -143 33 -188 18z"/>
<path d="M4967 4100 c-188 -48 -307 -252 -294 -505 5 -107 33 -177 86 -212 69
-47 148 -38 177 19 8 16 25 80 37 141 l22 112 57 7 c227 28 324 301 146 411
-37 23 -60 29 -119 32 -41 2 -91 0 -112 -5z m143 -95 c41 -21 60 -53 60 -103
0 -84 -41 -138 -122 -160 -44 -12 -43 -13 -28 69 22 111 14 138 -36 139 -40 0
-54 -22 -73 -120 -13 -67 -22 -94 -32 -92 -7 2 -23 1 -36 -3 -20 -5 -24 -11
-21 -38 2 -27 8 -33 31 -35 15 -2 27 -6 27 -9 0 -33 -35 -181 -45 -192 -34
-35 -75 53 -75 164 0 180 69 328 175 376 49 23 136 24 175 4z"/>
<path d="M8773 4096 c-158 -50 -255 -217 -241 -414 7 -101 50 -171 133 -215
31 -17 57 -22 120 -22 95 1 151 23 216 89 141 139 151 432 18 527 -65 46 -164
60 -246 35z m157 -105 c50 -36 65 -78 64 -176 0 -70 -6 -101 -23 -141 -69
-158 -250 -190 -305 -54 -33 82 -15 235 36 310 57 83 158 110 228 61z"/>
<path d="M10801 4084 c-11 -15 -21 -29 -21 -33 0 -3 -18 -93 -40 -200 -42
-206 -42 -221 6 -221 13 0 28 9 34 19 22 42 121 398 118 426 -3 27 -7 30 -39
33 -30 3 -41 -2 -58 -24z"/>
<path d="M3617 3972 c-20 -22 -22 -73 -5 -90 7 -7 26 -12 43 -12 17 0 36 5 43
12 16 16 16 80 0 96 -18 18 -63 14 -81 -6z"/>
<path d="M3793 3982 c-21 -13 -33 -60 -23 -87 8 -20 16 -25 44 -25 42 0 66 22
66 60 0 47 -49 76 -87 52z"/>
<path d="M3225 3790 c-25 -28 -45 -122 -45 -215 0 -85 14 -128 43 -133 34 -7
47 17 47 84 l0 64 50 0 50 0 0 -55 c0 -74 23 -99 87 -92 24 2 60 16 80 30 l35
25 35 -24 c59 -40 145 -45 211 -12 26 13 31 13 51 -4 50 -39 135 -10 169 59
11 21 28 63 38 93 l19 55 6 -90 c6 -96 19 -135 47 -135 31 0 41 15 81 112 57
142 62 146 54 57 -10 -129 21 -180 102 -165 24 5 53 23 86 55 43 42 50 53 47
82 -4 46 -21 46 -54 0 -38 -51 -61 -66 -80 -50 -11 9 -14 40 -14 133 0 82 -4
126 -12 134 -40 40 -119 -24 -159 -128 -20 -51 -25 -57 -31 -38 -3 13 -6 55
-7 94 -1 76 -6 84 -55 84 -34 0 -51 -25 -90 -133 -37 -104 -59 -147 -77 -147
-6 0 -10 15 -8 33 4 60 1 67 -29 67 -31 0 -62 -27 -62 -53 0 -21 -70 -57 -110
-57 -35 0 -70 15 -70 30 0 6 6 10 13 10 7 0 36 12 64 26 41 20 56 35 74 70 19
40 20 51 10 85 -15 51 -57 74 -119 65 -87 -12 -146 -84 -156 -187 -5 -57 -29
-89 -67 -89 -25 0 -25 39 1 160 23 102 21 120 -10 120 -42 0 -59 -18 -72 -80
l-12 -60 -54 0 c-45 0 -53 3 -48 16 3 9 9 40 12 70 l7 54 -30 0 c-17 0 -38 -8
-48 -20z m513 -88 c4 -28 -18 -56 -59 -72 -36 -15 -43 -10 -34 28 14 64 86 98
93 44z"/>
<path d="M5371 3792 c-75 -37 -121 -140 -101 -225 36 -161 229 -171 295 -14
12 30 20 37 43 37 26 0 28 -2 24 -35 -6 -53 5 -83 38 -100 71 -37 138 -4 187
94 l31 63 -5 -79 c-6 -87 0 -99 43 -89 18 5 27 17 36 51 7 25 15 45 18 45 3 0
13 -14 22 -30 38 -66 119 -87 188 -49 l38 22 28 -22 c32 -25 64 -27 104 -6 48
25 35 3 -30 -51 -102 -84 -150 -159 -150 -234 0 -51 25 -80 75 -86 84 -11 151
77 197 259 l23 89 63 45 63 45 39 -35 c61 -56 153 -61 243 -15 21 10 40 18 40
16 23 -46 47 -59 72 -38 10 9 15 33 15 76 l0 64 50 0 50 0 0 -55 c0 -75 23
-99 87 -92 25 3 59 15 75 27 l30 22 27 -26 c45 -44 94 -28 131 42 18 35 19 36
20 11 0 -15 9 -38 21 -53 24 -30 61 -34 115 -11 32 13 39 13 64 0 74 -38 160
-2 232 98 11 15 13 11 14 -30 2 -77 52 -102 127 -64 l37 19 0 -27 c0 -14 -5
-46 -11 -70 -11 -50 1 -74 35 -69 25 4 79 99 97 171 9 40 9 51 -5 72 -9 14
-23 25 -31 25 -8 0 -15 7 -15 15 0 34 -30 26 -74 -20 -81 -85 -104 -43 -66
123 12 51 19 96 16 100 -11 11 -181 12 -214 1 -60 -20 -89 -100 -60 -164 12
-27 55 -55 84 -55 14 0 14 -3 3 -16 -21 -26 -70 -46 -95 -40 -20 5 -24 13 -24
44 0 50 -11 64 -46 60 -27 -3 -33 -9 -64 -78 -4 -8 -17 -16 -29 -18 -18 -3
-21 1 -21 32 0 20 9 77 20 128 12 50 19 97 16 105 -7 16 -47 17 -68 1 -9 -7
-26 -44 -38 -83 -38 -118 -90 -192 -107 -149 -3 9 4 64 15 122 12 57 19 109
16 113 -9 16 -60 10 -77 -8 -19 -22 -47 -127 -47 -176 0 -27 -7 -41 -31 -61
-17 -14 -39 -26 -50 -26 -25 0 -25 38 1 160 23 102 21 120 -10 120 -42 0 -59
-18 -72 -80 l-12 -60 -54 0 c-45 0 -53 3 -48 16 3 9 9 40 12 70 l7 54 -30 0
c-17 0 -38 -8 -48 -20 -19 -21 -45 -116 -45 -166 0 -73 -142 -133 -200 -86
l-22 18 43 13 c84 25 129 76 129 145 0 119 -178 127 -246 10 -14 -24 -28 -62
-31 -84 -5 -34 -13 -45 -54 -75 -27 -19 -49 -32 -49 -27 0 4 7 45 15 92 8 47
15 100 15 118 0 30 -2 32 -34 32 -21 0 -36 6 -40 15 -15 39 -123 0 -178 -64
-32 -38 -45 -69 -63 -153 -13 -63 -111 -74 -141 -15 -31 58 4 172 50 165 18
-3 20 -9 18 -39 -4 -42 8 -54 43 -45 48 12 50 111 3 150 -17 14 -33 17 -68 13
-37 -4 -51 -12 -82 -47 -20 -23 -44 -64 -53 -91 -10 -28 -19 -49 -20 -47 -2 2
3 37 11 78 20 105 19 110 -14 110 -36 0 -57 -24 -67 -74 l-7 -40 -18 41 c-30
68 -80 89 -139 58 -33 -16 -41 -33 -41 -80 0 -30 -3 -33 -37 -39 -56 -9 -63
-8 -63 12 0 28 -37 81 -72 102 -41 25 -92 26 -137 2z m2577 -57 c2 -2 -7 -23
-20 -49 -25 -52 -52 -60 -83 -26 -24 27 -11 71 25 81 21 5 68 2 78 -6z m-2477
-111 c20 -21 20 -26 9 -54 -15 -37 -52 -55 -80 -40 -11 6 -25 28 -31 49 -15
52 5 120 41 138 24 12 25 11 32 -29 4 -23 17 -52 29 -64z m939 21 c-19 -91
-41 -128 -74 -123 -24 3 -32 47 -21 105 7 39 64 103 92 103 20 0 20 -1 3 -85z
m375 65 c8 -26 -10 -57 -45 -75 -41 -21 -50 -19 -50 14 0 60 79 111 95 61z
m-990 -67 c0 -76 -19 -113 -57 -113 -14 0 -18 8 -18 39 0 22 -4 43 -10 46 -5
3 -10 19 -10 36 0 23 4 29 23 29 12 0 28 9 35 21 24 37 37 16 37 -58z m555
-365 c-21 -69 -52 -118 -75 -118 -41 0 -13 89 48 154 21 22 39 37 42 35 2 -3
-5 -35 -15 -71z"/>
<path d="M9396 3797 c-9 -7 -45 -69 -79 -137 -68 -137 -92 -158 -92 -80 0 41
-2 45 -26 48 -69 8 -93 -115 -33 -166 61 -53 147 -5 204 113 l29 60 1 -40 c1
-64 17 -119 42 -139 33 -27 99 -17 148 23 31 25 39 28 44 15 3 -8 27 -24 53
-36 61 -27 144 -21 207 16 30 18 47 23 52 15 11 -19 87 -49 125 -49 19 0 56 7
81 16 42 14 49 14 77 0 67 -35 162 -4 215 71 l31 45 5 -52 c9 -79 55 -101 129
-61 33 17 35 17 52 0 39 -39 112 -14 124 41 8 38 -15 77 -50 86 -14 3 -25 12
-25 20 0 26 -25 14 -70 -31 -49 -50 -83 -57 -88 -17 -2 13 4 60 14 105 10 45
18 95 18 112 l1 30 -95 2 c-70 1 -103 -2 -128 -14 -42 -20 -66 -71 -58 -123 6
-41 54 -90 89 -90 21 -1 21 -1 -6 -25 -60 -53 -107 -41 -107 27 0 44 -17 56
-59 42 -17 -6 -30 -21 -37 -44 -22 -68 -128 -80 -160 -18 -31 59 3 159 56 166
21 3 22 1 17 -31 -9 -56 36 -79 67 -35 31 43 14 117 -31 137 -99 45 -223 -64
-223 -197 0 -24 -7 -35 -36 -53 -42 -26 -113 -36 -143 -20 -31 17 -26 24 27
44 65 23 98 50 112 93 18 53 5 101 -33 124 -95 59 -224 -27 -235 -155 -4 -45
-10 -59 -38 -86 -33 -32 -35 -32 -52 -16 -14 15 -17 37 -17 138 0 95 -3 122
-15 129 -21 14 -63 12 -84 -3z m1102 -63 c2 -1 -5 -23 -17 -48 -16 -37 -25
-46 -45 -46 -35 0 -62 41 -46 70 14 26 47 40 80 33 14 -3 27 -7 28 -9z m-710
-34 c3 -31 -30 -65 -72 -76 -25 -6 -28 -5 -23 10 4 10 7 23 7 30 0 8 10 25 21
40 27 34 63 32 67 -4z"/>
</g>
</svg>
